<mxfile host="app.diagrams.net" modified="2024-05-19T09:47:56.362Z" agent="Mozilla/5.0 (X11; Linux x86_64) AppleWebKit/537.36 (KHTML, like Gecko) Chrome/124.0.0.0 Safari/537.36" etag="xH8KJSTl3G4iuxjJO7EN" version="24.4.4" type="device">
  <diagram name="Страница — 1" id="P_WCqPjOZ9q7N-OjsIVb">
    <mxGraphModel dx="1206" dy="989" grid="1" gridSize="10" guides="1" tooltips="1" connect="1" arrows="1" fold="1" page="1" pageScale="1" pageWidth="827" pageHeight="1169" math="0" shadow="0">
      <root>
        <mxCell id="0" />
        <mxCell id="1" parent="0" />
        <mxCell id="vxC554X1ig0vDU0PE8Ls-47" value="Кластер из физических серверов, связанных сетью" style="rounded=0;whiteSpace=wrap;html=1;verticalAlign=top;fillColor=#d5e8d4;strokeColor=#82b366;" parent="1" vertex="1">
          <mxGeometry x="840" y="10" width="840" height="1410" as="geometry" />
        </mxCell>
        <mxCell id="vxC554X1ig0vDU0PE8Ls-46" value="Физический сервер" style="rounded=0;whiteSpace=wrap;html=1;verticalAlign=top;fillColor=#dae8fc;strokeColor=#6c8ebf;" parent="1" vertex="1">
          <mxGeometry x="860" y="35" width="800" height="1365" as="geometry" />
        </mxCell>
        <mxCell id="vxC554X1ig0vDU0PE8Ls-45" value="Виртуальная машина на физическом сервере (занимает ресурсы сервера)" style="rounded=0;whiteSpace=wrap;html=1;verticalAlign=top;fillColor=#f5f5f5;fontColor=#333333;strokeColor=#666666;" parent="1" vertex="1">
          <mxGeometry x="885" y="75" width="750" height="1305" as="geometry" />
        </mxCell>
        <mxCell id="vxC554X1ig0vDU0PE8Ls-44" value="Broker Kafka - 1 (leader для топиков - input_messages и output_messages)" style="rounded=1;whiteSpace=wrap;html=1;verticalAlign=top;fillColor=#ffe6cc;strokeColor=#d79b00;" parent="1" vertex="1">
          <mxGeometry x="945" y="115" width="630" height="1155" as="geometry" />
        </mxCell>
        <mxCell id="vxC554X1ig0vDU0PE8Ls-48" value="Топик incoming_transactions" style="rounded=0;whiteSpace=wrap;html=1;fillColor=#f8cecc;strokeColor=#b85450;verticalAlign=top;" parent="1" vertex="1">
          <mxGeometry x="975" y="155" width="570" height="340" as="geometry" />
        </mxCell>
        <mxCell id="vxC554X1ig0vDU0PE8Ls-49" value="partition-0 (раздел)" style="rounded=0;whiteSpace=wrap;html=1;verticalAlign=top;fillColor=#e1d5e7;strokeColor=#9673a6;" parent="1" vertex="1">
          <mxGeometry x="985" y="205" width="550" height="90" as="geometry" />
        </mxCell>
        <mxCell id="vxC554X1ig0vDU0PE8Ls-51" value="partition-1 (раздел)" style="rounded=0;whiteSpace=wrap;html=1;verticalAlign=top;fillColor=#e1d5e7;strokeColor=#9673a6;" parent="1" vertex="1">
          <mxGeometry x="985" y="300" width="550" height="90" as="geometry" />
        </mxCell>
        <mxCell id="vxC554X1ig0vDU0PE8Ls-52" value="partition-2 (раздел)" style="rounded=0;whiteSpace=wrap;html=1;verticalAlign=top;fillColor=#e1d5e7;strokeColor=#9673a6;" parent="1" vertex="1">
          <mxGeometry x="985" y="395" width="550" height="90" as="geometry" />
        </mxCell>
        <mxCell id="vxC554X1ig0vDU0PE8Ls-53" value="1" style="shape=message;html=1;html=1;outlineConnect=0;labelPosition=center;verticalLabelPosition=bottom;align=center;verticalAlign=top;" parent="1" vertex="1">
          <mxGeometry x="1005" y="235" width="60" height="40" as="geometry" />
        </mxCell>
        <mxCell id="vxC554X1ig0vDU0PE8Ls-54" value="4" style="shape=message;html=1;html=1;outlineConnect=0;labelPosition=center;verticalLabelPosition=bottom;align=center;verticalAlign=top;" parent="1" vertex="1">
          <mxGeometry x="1085" y="235" width="60" height="40" as="geometry" />
        </mxCell>
        <mxCell id="vxC554X1ig0vDU0PE8Ls-55" value="" style="shape=message;html=1;html=1;outlineConnect=0;labelPosition=center;verticalLabelPosition=bottom;align=center;verticalAlign=top;" parent="1" vertex="1">
          <mxGeometry x="1165" y="235" width="60" height="40" as="geometry" />
        </mxCell>
        <mxCell id="vxC554X1ig0vDU0PE8Ls-56" value="" style="shape=message;html=1;html=1;outlineConnect=0;labelPosition=center;verticalLabelPosition=bottom;align=center;verticalAlign=top;" parent="1" vertex="1">
          <mxGeometry x="1245" y="235" width="60" height="40" as="geometry" />
        </mxCell>
        <mxCell id="vxC554X1ig0vDU0PE8Ls-57" value="2" style="shape=message;html=1;html=1;outlineConnect=0;labelPosition=center;verticalLabelPosition=bottom;align=center;verticalAlign=top;" parent="1" vertex="1">
          <mxGeometry x="1005" y="330" width="60" height="40" as="geometry" />
        </mxCell>
        <mxCell id="vxC554X1ig0vDU0PE8Ls-58" value="5" style="shape=message;html=1;html=1;outlineConnect=0;labelPosition=center;verticalLabelPosition=bottom;align=center;verticalAlign=top;" parent="1" vertex="1">
          <mxGeometry x="1085" y="330" width="60" height="40" as="geometry" />
        </mxCell>
        <mxCell id="vxC554X1ig0vDU0PE8Ls-59" value="" style="shape=message;html=1;html=1;outlineConnect=0;labelPosition=center;verticalLabelPosition=bottom;align=center;verticalAlign=top;" parent="1" vertex="1">
          <mxGeometry x="1165" y="330" width="60" height="40" as="geometry" />
        </mxCell>
        <mxCell id="vxC554X1ig0vDU0PE8Ls-60" value="" style="shape=message;html=1;html=1;outlineConnect=0;labelPosition=center;verticalLabelPosition=bottom;align=center;verticalAlign=top;" parent="1" vertex="1">
          <mxGeometry x="1245" y="330" width="60" height="40" as="geometry" />
        </mxCell>
        <mxCell id="vxC554X1ig0vDU0PE8Ls-61" value="3" style="shape=message;html=1;html=1;outlineConnect=0;labelPosition=center;verticalLabelPosition=bottom;align=center;verticalAlign=top;" parent="1" vertex="1">
          <mxGeometry x="1005" y="425" width="60" height="40" as="geometry" />
        </mxCell>
        <mxCell id="vxC554X1ig0vDU0PE8Ls-62" value="6" style="shape=message;html=1;html=1;outlineConnect=0;labelPosition=center;verticalLabelPosition=bottom;align=center;verticalAlign=top;" parent="1" vertex="1">
          <mxGeometry x="1085" y="425" width="60" height="40" as="geometry" />
        </mxCell>
        <mxCell id="vxC554X1ig0vDU0PE8Ls-63" value="" style="shape=message;html=1;html=1;outlineConnect=0;labelPosition=center;verticalLabelPosition=bottom;align=center;verticalAlign=top;" parent="1" vertex="1">
          <mxGeometry x="1165" y="425" width="60" height="40" as="geometry" />
        </mxCell>
        <mxCell id="vxC554X1ig0vDU0PE8Ls-64" value="" style="shape=message;html=1;html=1;outlineConnect=0;labelPosition=center;verticalLabelPosition=bottom;align=center;verticalAlign=top;" parent="1" vertex="1">
          <mxGeometry x="1245" y="425" width="60" height="40" as="geometry" />
        </mxCell>
        <mxCell id="vxC554X1ig0vDU0PE8Ls-73" value="Zookeeper - хранит метаинформацию и координирует действия брокеров и клиентов&lt;div&gt;&lt;br&gt;&lt;/div&gt;" style="rounded=0;whiteSpace=wrap;html=1;verticalAlign=top;fillColor=#a20025;fontColor=#ffffff;strokeColor=#6F0000;" parent="1" vertex="1">
          <mxGeometry x="960" y="1280" width="630" height="80" as="geometry" />
        </mxCell>
        <mxCell id="Jp-DT_8YNwJXtTikvcxm-22" style="edgeStyle=orthogonalEdgeStyle;rounded=0;orthogonalLoop=1;jettySize=auto;html=1;entryX=1;entryY=0.5;entryDx=0;entryDy=0;exitX=1;exitY=0.5;exitDx=0;exitDy=0;" parent="1" source="vxC554X1ig0vDU0PE8Ls-75" target="vxC554X1ig0vDU0PE8Ls-73" edge="1">
          <mxGeometry relative="1" as="geometry">
            <Array as="points">
              <mxPoint x="2385" y="900" />
              <mxPoint x="2385" y="1320" />
            </Array>
          </mxGeometry>
        </mxCell>
        <mxCell id="Jp-DT_8YNwJXtTikvcxm-24" value="0. Первый запрос на &lt;br&gt;получение информации" style="edgeLabel;html=1;align=center;verticalAlign=middle;resizable=0;points=[];" parent="Jp-DT_8YNwJXtTikvcxm-22" vertex="1" connectable="0">
          <mxGeometry x="0.3575" y="-1" relative="1" as="geometry">
            <mxPoint x="13" y="-24" as="offset" />
          </mxGeometry>
        </mxCell>
        <mxCell id="vxC554X1ig0vDU0PE8Ls-75" value="Producer (Publisher)&lt;div&gt;Отправка сообщений в формате JSON&lt;/div&gt;" style="rounded=1;whiteSpace=wrap;html=1;verticalAlign=top;" parent="1" vertex="1">
          <mxGeometry x="1805" y="865" width="560" height="70" as="geometry" />
        </mxCell>
        <mxCell id="Jp-DT_8YNwJXtTikvcxm-17" style="edgeStyle=orthogonalEdgeStyle;rounded=0;orthogonalLoop=1;jettySize=auto;html=1;entryX=1;entryY=0.5;entryDx=0;entryDy=0;" parent="1" source="nMAfcd1W3iotZXb-PoqP-1" target="vxC554X1ig0vDU0PE8Ls-49" edge="1">
          <mxGeometry relative="1" as="geometry" />
        </mxCell>
        <mxCell id="Jp-DT_8YNwJXtTikvcxm-18" style="edgeStyle=orthogonalEdgeStyle;rounded=0;orthogonalLoop=1;jettySize=auto;html=1;" parent="1" source="nMAfcd1W3iotZXb-PoqP-1" target="vxC554X1ig0vDU0PE8Ls-51" edge="1">
          <mxGeometry relative="1" as="geometry" />
        </mxCell>
        <mxCell id="Jp-DT_8YNwJXtTikvcxm-19" style="edgeStyle=orthogonalEdgeStyle;rounded=0;orthogonalLoop=1;jettySize=auto;html=1;entryX=1;entryY=0.5;entryDx=0;entryDy=0;" parent="1" source="nMAfcd1W3iotZXb-PoqP-1" target="vxC554X1ig0vDU0PE8Ls-52" edge="1">
          <mxGeometry relative="1" as="geometry" />
        </mxCell>
        <mxCell id="Jp-DT_8YNwJXtTikvcxm-34" value="1. Запросы на чтение&lt;br&gt;данных" style="edgeLabel;html=1;align=center;verticalAlign=middle;resizable=0;points=[];" parent="Jp-DT_8YNwJXtTikvcxm-19" vertex="1" connectable="0">
          <mxGeometry x="-0.4571" relative="1" as="geometry">
            <mxPoint as="offset" />
          </mxGeometry>
        </mxCell>
        <mxCell id="Jp-DT_8YNwJXtTikvcxm-38" style="edgeStyle=orthogonalEdgeStyle;rounded=0;orthogonalLoop=1;jettySize=auto;html=1;entryX=1;entryY=0.5;entryDx=0;entryDy=0;" parent="1" source="nMAfcd1W3iotZXb-PoqP-1" target="vxC554X1ig0vDU0PE8Ls-73" edge="1">
          <mxGeometry relative="1" as="geometry">
            <Array as="points">
              <mxPoint x="2405" y="350" />
              <mxPoint x="2405" y="1320" />
            </Array>
          </mxGeometry>
        </mxCell>
        <mxCell id="nMAfcd1W3iotZXb-PoqP-1" value="Consumer (Subscriber)&lt;div&gt;Читаются сообщения в формате JSON&lt;/div&gt;" style="rounded=1;whiteSpace=wrap;html=1;verticalAlign=top;" parent="1" vertex="1">
          <mxGeometry x="1805" y="317.5" width="560" height="65" as="geometry" />
        </mxCell>
        <mxCell id="Jp-DT_8YNwJXtTikvcxm-1" value="Топик privileged_transactions" style="rounded=0;whiteSpace=wrap;html=1;fillColor=#f8cecc;strokeColor=#b85450;verticalAlign=top;" parent="1" vertex="1">
          <mxGeometry x="975" y="525" width="570" height="340" as="geometry" />
        </mxCell>
        <mxCell id="Jp-DT_8YNwJXtTikvcxm-2" value="partition-0 (раздел)" style="rounded=0;whiteSpace=wrap;html=1;verticalAlign=top;fillColor=#e1d5e7;strokeColor=#9673a6;" parent="1" vertex="1">
          <mxGeometry x="985" y="555" width="550" height="90" as="geometry" />
        </mxCell>
        <mxCell id="Jp-DT_8YNwJXtTikvcxm-3" value="partition-1 (раздел)" style="rounded=0;whiteSpace=wrap;html=1;verticalAlign=top;fillColor=#e1d5e7;strokeColor=#9673a6;" parent="1" vertex="1">
          <mxGeometry x="985" y="665" width="550" height="90" as="geometry" />
        </mxCell>
        <mxCell id="Jp-DT_8YNwJXtTikvcxm-4" value="partition-2 (раздел)" style="rounded=0;whiteSpace=wrap;html=1;verticalAlign=top;fillColor=#e1d5e7;strokeColor=#9673a6;" parent="1" vertex="1">
          <mxGeometry x="985" y="765" width="550" height="90" as="geometry" />
        </mxCell>
        <mxCell id="Jp-DT_8YNwJXtTikvcxm-5" value="1" style="shape=message;html=1;html=1;outlineConnect=0;labelPosition=center;verticalLabelPosition=bottom;align=center;verticalAlign=top;" parent="1" vertex="1">
          <mxGeometry x="1005" y="585" width="60" height="40" as="geometry" />
        </mxCell>
        <mxCell id="Jp-DT_8YNwJXtTikvcxm-6" value="4" style="shape=message;html=1;html=1;outlineConnect=0;labelPosition=center;verticalLabelPosition=bottom;align=center;verticalAlign=top;" parent="1" vertex="1">
          <mxGeometry x="1085" y="585" width="60" height="40" as="geometry" />
        </mxCell>
        <mxCell id="Jp-DT_8YNwJXtTikvcxm-7" value="" style="shape=message;html=1;html=1;outlineConnect=0;labelPosition=center;verticalLabelPosition=bottom;align=center;verticalAlign=top;" parent="1" vertex="1">
          <mxGeometry x="1165" y="585" width="60" height="40" as="geometry" />
        </mxCell>
        <mxCell id="Jp-DT_8YNwJXtTikvcxm-8" value="" style="shape=message;html=1;html=1;outlineConnect=0;labelPosition=center;verticalLabelPosition=bottom;align=center;verticalAlign=top;" parent="1" vertex="1">
          <mxGeometry x="1245" y="585" width="60" height="40" as="geometry" />
        </mxCell>
        <mxCell id="Jp-DT_8YNwJXtTikvcxm-9" value="2" style="shape=message;html=1;html=1;outlineConnect=0;labelPosition=center;verticalLabelPosition=bottom;align=center;verticalAlign=top;" parent="1" vertex="1">
          <mxGeometry x="1005" y="690" width="60" height="40" as="geometry" />
        </mxCell>
        <mxCell id="Jp-DT_8YNwJXtTikvcxm-10" value="5" style="shape=message;html=1;html=1;outlineConnect=0;labelPosition=center;verticalLabelPosition=bottom;align=center;verticalAlign=top;" parent="1" vertex="1">
          <mxGeometry x="1085" y="690" width="60" height="40" as="geometry" />
        </mxCell>
        <mxCell id="Jp-DT_8YNwJXtTikvcxm-11" value="" style="shape=message;html=1;html=1;outlineConnect=0;labelPosition=center;verticalLabelPosition=bottom;align=center;verticalAlign=top;" parent="1" vertex="1">
          <mxGeometry x="1165" y="690" width="60" height="40" as="geometry" />
        </mxCell>
        <mxCell id="Jp-DT_8YNwJXtTikvcxm-12" value="" style="shape=message;html=1;html=1;outlineConnect=0;labelPosition=center;verticalLabelPosition=bottom;align=center;verticalAlign=top;" parent="1" vertex="1">
          <mxGeometry x="1245" y="690" width="60" height="40" as="geometry" />
        </mxCell>
        <mxCell id="Jp-DT_8YNwJXtTikvcxm-13" value="3" style="shape=message;html=1;html=1;outlineConnect=0;labelPosition=center;verticalLabelPosition=bottom;align=center;verticalAlign=top;" parent="1" vertex="1">
          <mxGeometry x="1005" y="795" width="60" height="40" as="geometry" />
        </mxCell>
        <mxCell id="Jp-DT_8YNwJXtTikvcxm-14" value="6" style="shape=message;html=1;html=1;outlineConnect=0;labelPosition=center;verticalLabelPosition=bottom;align=center;verticalAlign=top;" parent="1" vertex="1">
          <mxGeometry x="1085" y="795" width="60" height="40" as="geometry" />
        </mxCell>
        <mxCell id="Jp-DT_8YNwJXtTikvcxm-15" value="" style="shape=message;html=1;html=1;outlineConnect=0;labelPosition=center;verticalLabelPosition=bottom;align=center;verticalAlign=top;" parent="1" vertex="1">
          <mxGeometry x="1165" y="795" width="60" height="40" as="geometry" />
        </mxCell>
        <mxCell id="Jp-DT_8YNwJXtTikvcxm-16" value="" style="shape=message;html=1;html=1;outlineConnect=0;labelPosition=center;verticalLabelPosition=bottom;align=center;verticalAlign=top;" parent="1" vertex="1">
          <mxGeometry x="1245" y="795" width="60" height="40" as="geometry" />
        </mxCell>
        <mxCell id="Jp-DT_8YNwJXtTikvcxm-25" value="Обработка сообщений:&lt;br&gt;&lt;div style=&quot;text-align: left;&quot;&gt;&lt;span style=&quot;background-color: initial;&quot;&gt;- фильтрация&lt;/span&gt;&lt;/div&gt;&lt;div style=&quot;text-align: left;&quot;&gt;&lt;span style=&quot;background-color: initial;&quot;&gt;- преобразование&lt;/span&gt;&lt;/div&gt;&lt;div style=&quot;text-align: left;&quot;&gt;&lt;span style=&quot;background-color: initial;&quot;&gt;- дедубликация&lt;/span&gt;&lt;/div&gt;" style="rounded=1;whiteSpace=wrap;html=1;verticalAlign=top;" parent="1" vertex="1">
          <mxGeometry x="1805" y="534" width="560" height="70" as="geometry" />
        </mxCell>
        <mxCell id="Jp-DT_8YNwJXtTikvcxm-27" style="edgeStyle=orthogonalEdgeStyle;rounded=0;orthogonalLoop=1;jettySize=auto;html=1;entryX=0.5;entryY=0;entryDx=0;entryDy=0;" parent="1" source="nMAfcd1W3iotZXb-PoqP-1" target="Jp-DT_8YNwJXtTikvcxm-25" edge="1">
          <mxGeometry relative="1" as="geometry" />
        </mxCell>
        <mxCell id="Jp-DT_8YNwJXtTikvcxm-35" value="2. Инициируется обработка сообщений" style="edgeLabel;html=1;align=center;verticalAlign=middle;resizable=0;points=[];" parent="Jp-DT_8YNwJXtTikvcxm-27" vertex="1" connectable="0">
          <mxGeometry x="-0.1061" y="-1" relative="1" as="geometry">
            <mxPoint as="offset" />
          </mxGeometry>
        </mxCell>
        <mxCell id="Jp-DT_8YNwJXtTikvcxm-28" style="edgeStyle=orthogonalEdgeStyle;rounded=0;orthogonalLoop=1;jettySize=auto;html=1;entryX=0.5;entryY=0;entryDx=0;entryDy=0;" parent="1" source="Jp-DT_8YNwJXtTikvcxm-25" target="vxC554X1ig0vDU0PE8Ls-75" edge="1">
          <mxGeometry relative="1" as="geometry">
            <mxPoint x="2096" y="627" as="targetPoint" />
          </mxGeometry>
        </mxCell>
        <mxCell id="Jp-DT_8YNwJXtTikvcxm-36" value="3. Передаются обработанные сообщения продюсеру" style="edgeLabel;html=1;align=center;verticalAlign=middle;resizable=0;points=[];" parent="Jp-DT_8YNwJXtTikvcxm-28" vertex="1" connectable="0">
          <mxGeometry x="-0.0673" relative="1" as="geometry">
            <mxPoint as="offset" />
          </mxGeometry>
        </mxCell>
        <mxCell id="Jp-DT_8YNwJXtTikvcxm-30" style="edgeStyle=orthogonalEdgeStyle;rounded=0;orthogonalLoop=1;jettySize=auto;html=1;entryX=1;entryY=0.5;entryDx=0;entryDy=0;" parent="1" source="vxC554X1ig0vDU0PE8Ls-75" target="Jp-DT_8YNwJXtTikvcxm-2" edge="1">
          <mxGeometry relative="1" as="geometry" />
        </mxCell>
        <mxCell id="Jp-DT_8YNwJXtTikvcxm-31" style="edgeStyle=orthogonalEdgeStyle;rounded=0;orthogonalLoop=1;jettySize=auto;html=1;entryX=1;entryY=0.5;entryDx=0;entryDy=0;" parent="1" source="vxC554X1ig0vDU0PE8Ls-75" target="Jp-DT_8YNwJXtTikvcxm-3" edge="1">
          <mxGeometry relative="1" as="geometry" />
        </mxCell>
        <mxCell id="Jp-DT_8YNwJXtTikvcxm-32" style="edgeStyle=orthogonalEdgeStyle;rounded=0;orthogonalLoop=1;jettySize=auto;html=1;entryX=1;entryY=0.5;entryDx=0;entryDy=0;" parent="1" source="vxC554X1ig0vDU0PE8Ls-75" target="Jp-DT_8YNwJXtTikvcxm-4" edge="1">
          <mxGeometry relative="1" as="geometry" />
        </mxCell>
        <mxCell id="Jp-DT_8YNwJXtTikvcxm-40" value="Топик standard&lt;span style=&quot;background-color: initial;&quot;&gt;_transactions&lt;/span&gt;" style="rounded=0;whiteSpace=wrap;html=1;fillColor=#f8cecc;strokeColor=#b85450;verticalAlign=top;" parent="1" vertex="1">
          <mxGeometry x="975" y="895" width="570" height="340" as="geometry" />
        </mxCell>
        <mxCell id="Jp-DT_8YNwJXtTikvcxm-41" value="partition-0 (раздел)" style="rounded=0;whiteSpace=wrap;html=1;verticalAlign=top;fillColor=#e1d5e7;strokeColor=#9673a6;" parent="1" vertex="1">
          <mxGeometry x="985" y="925" width="550" height="90" as="geometry" />
        </mxCell>
        <mxCell id="Jp-DT_8YNwJXtTikvcxm-42" value="partition-1 (раздел)" style="rounded=0;whiteSpace=wrap;html=1;verticalAlign=top;fillColor=#e1d5e7;strokeColor=#9673a6;" parent="1" vertex="1">
          <mxGeometry x="985" y="1035" width="550" height="90" as="geometry" />
        </mxCell>
        <mxCell id="Jp-DT_8YNwJXtTikvcxm-43" value="partition-2 (раздел)" style="rounded=0;whiteSpace=wrap;html=1;verticalAlign=top;fillColor=#e1d5e7;strokeColor=#9673a6;" parent="1" vertex="1">
          <mxGeometry x="985" y="1135" width="550" height="90" as="geometry" />
        </mxCell>
        <mxCell id="Jp-DT_8YNwJXtTikvcxm-44" value="1" style="shape=message;html=1;html=1;outlineConnect=0;labelPosition=center;verticalLabelPosition=bottom;align=center;verticalAlign=top;" parent="1" vertex="1">
          <mxGeometry x="1005" y="955" width="60" height="40" as="geometry" />
        </mxCell>
        <mxCell id="Jp-DT_8YNwJXtTikvcxm-45" value="4" style="shape=message;html=1;html=1;outlineConnect=0;labelPosition=center;verticalLabelPosition=bottom;align=center;verticalAlign=top;" parent="1" vertex="1">
          <mxGeometry x="1085" y="955" width="60" height="40" as="geometry" />
        </mxCell>
        <mxCell id="Jp-DT_8YNwJXtTikvcxm-46" value="" style="shape=message;html=1;html=1;outlineConnect=0;labelPosition=center;verticalLabelPosition=bottom;align=center;verticalAlign=top;" parent="1" vertex="1">
          <mxGeometry x="1165" y="955" width="60" height="40" as="geometry" />
        </mxCell>
        <mxCell id="Jp-DT_8YNwJXtTikvcxm-47" value="" style="shape=message;html=1;html=1;outlineConnect=0;labelPosition=center;verticalLabelPosition=bottom;align=center;verticalAlign=top;" parent="1" vertex="1">
          <mxGeometry x="1245" y="955" width="60" height="40" as="geometry" />
        </mxCell>
        <mxCell id="Jp-DT_8YNwJXtTikvcxm-48" value="2" style="shape=message;html=1;html=1;outlineConnect=0;labelPosition=center;verticalLabelPosition=bottom;align=center;verticalAlign=top;" parent="1" vertex="1">
          <mxGeometry x="1005" y="1060" width="60" height="40" as="geometry" />
        </mxCell>
        <mxCell id="Jp-DT_8YNwJXtTikvcxm-49" value="5" style="shape=message;html=1;html=1;outlineConnect=0;labelPosition=center;verticalLabelPosition=bottom;align=center;verticalAlign=top;" parent="1" vertex="1">
          <mxGeometry x="1085" y="1060" width="60" height="40" as="geometry" />
        </mxCell>
        <mxCell id="Jp-DT_8YNwJXtTikvcxm-50" value="" style="shape=message;html=1;html=1;outlineConnect=0;labelPosition=center;verticalLabelPosition=bottom;align=center;verticalAlign=top;" parent="1" vertex="1">
          <mxGeometry x="1165" y="1060" width="60" height="40" as="geometry" />
        </mxCell>
        <mxCell id="Jp-DT_8YNwJXtTikvcxm-51" value="" style="shape=message;html=1;html=1;outlineConnect=0;labelPosition=center;verticalLabelPosition=bottom;align=center;verticalAlign=top;" parent="1" vertex="1">
          <mxGeometry x="1245" y="1060" width="60" height="40" as="geometry" />
        </mxCell>
        <mxCell id="Jp-DT_8YNwJXtTikvcxm-52" value="3" style="shape=message;html=1;html=1;outlineConnect=0;labelPosition=center;verticalLabelPosition=bottom;align=center;verticalAlign=top;" parent="1" vertex="1">
          <mxGeometry x="1005" y="1165" width="60" height="40" as="geometry" />
        </mxCell>
        <mxCell id="Jp-DT_8YNwJXtTikvcxm-53" value="6" style="shape=message;html=1;html=1;outlineConnect=0;labelPosition=center;verticalLabelPosition=bottom;align=center;verticalAlign=top;" parent="1" vertex="1">
          <mxGeometry x="1085" y="1165" width="60" height="40" as="geometry" />
        </mxCell>
        <mxCell id="Jp-DT_8YNwJXtTikvcxm-54" value="" style="shape=message;html=1;html=1;outlineConnect=0;labelPosition=center;verticalLabelPosition=bottom;align=center;verticalAlign=top;" parent="1" vertex="1">
          <mxGeometry x="1165" y="1165" width="60" height="40" as="geometry" />
        </mxCell>
        <mxCell id="Jp-DT_8YNwJXtTikvcxm-55" value="" style="shape=message;html=1;html=1;outlineConnect=0;labelPosition=center;verticalLabelPosition=bottom;align=center;verticalAlign=top;" parent="1" vertex="1">
          <mxGeometry x="1245" y="1165" width="60" height="40" as="geometry" />
        </mxCell>
        <mxCell id="Jp-DT_8YNwJXtTikvcxm-56" style="edgeStyle=orthogonalEdgeStyle;rounded=0;orthogonalLoop=1;jettySize=auto;html=1;entryX=1;entryY=0.5;entryDx=0;entryDy=0;" parent="1" source="vxC554X1ig0vDU0PE8Ls-75" target="Jp-DT_8YNwJXtTikvcxm-41" edge="1">
          <mxGeometry relative="1" as="geometry" />
        </mxCell>
        <mxCell id="Jp-DT_8YNwJXtTikvcxm-57" style="edgeStyle=orthogonalEdgeStyle;rounded=0;orthogonalLoop=1;jettySize=auto;html=1;entryX=1;entryY=0.5;entryDx=0;entryDy=0;" parent="1" source="vxC554X1ig0vDU0PE8Ls-75" target="Jp-DT_8YNwJXtTikvcxm-42" edge="1">
          <mxGeometry relative="1" as="geometry" />
        </mxCell>
        <mxCell id="Jp-DT_8YNwJXtTikvcxm-58" style="edgeStyle=orthogonalEdgeStyle;rounded=0;orthogonalLoop=1;jettySize=auto;html=1;entryX=1;entryY=0.5;entryDx=0;entryDy=0;" parent="1" source="vxC554X1ig0vDU0PE8Ls-75" target="Jp-DT_8YNwJXtTikvcxm-43" edge="1">
          <mxGeometry relative="1" as="geometry" />
        </mxCell>
        <mxCell id="Jp-DT_8YNwJXtTikvcxm-59" value="4.&amp;nbsp; Запросы на отправку&lt;br&gt;данных" style="edgeLabel;html=1;align=center;verticalAlign=middle;resizable=0;points=[];" parent="Jp-DT_8YNwJXtTikvcxm-58" vertex="1" connectable="0">
          <mxGeometry x="-0.6431" y="-1" relative="1" as="geometry">
            <mxPoint x="-1" as="offset" />
          </mxGeometry>
        </mxCell>
        <mxCell id="f6ZZZETz14dpHcQsKjNB-2" value="Redis" style="shape=cylinder3;whiteSpace=wrap;html=1;boundedLbl=1;backgroundOutline=1;size=15;" vertex="1" parent="1">
          <mxGeometry x="1780" y="665" width="109" height="80" as="geometry" />
        </mxCell>
        <mxCell id="f6ZZZETz14dpHcQsKjNB-4" style="edgeStyle=orthogonalEdgeStyle;rounded=0;orthogonalLoop=1;jettySize=auto;html=1;entryX=0.5;entryY=0;entryDx=0;entryDy=0;entryPerimeter=0;" edge="1" parent="1" source="Jp-DT_8YNwJXtTikvcxm-25" target="f6ZZZETz14dpHcQsKjNB-2">
          <mxGeometry relative="1" as="geometry" />
        </mxCell>
        <mxCell id="f6ZZZETz14dpHcQsKjNB-5" value="2.5 Кэшируются сообщения &lt;br&gt;от одного логина,&lt;br&gt;которые пришли в &lt;br&gt;течение короткого времени" style="edgeLabel;html=1;align=center;verticalAlign=middle;resizable=0;points=[];" vertex="1" connectable="0" parent="f6ZZZETz14dpHcQsKjNB-4">
          <mxGeometry x="0.1696" y="1" relative="1" as="geometry">
            <mxPoint as="offset" />
          </mxGeometry>
        </mxCell>
      </root>
    </mxGraphModel>
  </diagram>
</mxfile>
